<svg aria-hidden="true" style="position: absolute; width: 0; height: 0; overflow: hidden;" version="1.1" xmlns="http://www.w3.org/2000/svg" xmlns:xlink="http://www.w3.org/1999/xlink">
<defs>
<symbol id="icon--gelery" viewBox="0 0 43 32">
<path fill="#e1e1e1" style="fill: var(--color1, #e1e1e1)" d="M32.014 0c1.929 0 3.75 0.52 5.464 1.561s3.107 2.537 4.179 4.488c1.029 1.951 1.543 4.249 1.543 6.894s-0.643 5.225-1.929 7.74c-0.429 0.911-1.2 2.081-2.314 3.512-1.157 1.431-2.229 2.667-3.214 3.707l-4.050 4.098-2.893-4.813c2.014-1.257 3.793-2.818 5.336-4.683 1.543-1.821 2.314-3.491 2.314-5.008 0-0.78-0.171-1.409-0.514-1.886-1.5 1.084-3.171 1.626-5.014 1.626-1.329 0-2.593-0.412-3.793-1.236-1.243-0.78-2.229-1.821-2.957-3.122-0.771-1.258-1.157-2.558-1.157-3.902 0-1.518 0.45-2.97 1.35-4.358 0.857-1.388 1.993-2.515 3.407-3.382 1.371-0.824 2.786-1.236 4.243-1.236zM8.936 0c1.929 0 3.75 0.52 5.464 1.561s3.107 2.537 4.179 4.488c1.029 1.951 1.543 4.249 1.543 6.894 0 1.864-0.236 3.534-0.707 5.008-0.471 1.518-1.286 3.1-2.443 4.748-1.114 1.561-2.164 2.862-3.15 3.902-0.986 1.084-2.7 2.884-5.143 5.398l-2.893-4.813c2.014-1.257 3.793-2.818 5.336-4.683 1.543-1.821 2.314-3.491 2.314-5.008 0-0.78-0.171-1.409-0.514-1.886-1.5 1.084-3.171 1.626-5.014 1.626-1.329 0-2.593-0.412-3.793-1.236-1.243-0.78-2.229-1.821-2.957-3.122-0.771-1.258-1.157-2.558-1.157-3.902 0-1.518 0.429-2.97 1.286-4.358s1.993-2.515 3.407-3.382c1.371-0.824 2.786-1.236 4.243-1.236z"></path>
</symbol>
<symbol id="icon-arrow-right-hero" viewBox="0 0 32 32">
<path d="M0 0h32v32h-32v-32z"></path>
</symbol>
<symbol id="icon-arrow-right-produkts" viewBox="0 0 32 32">
<path d="M0 0h32v32h-32v-32z"></path>
</symbol>
<symbol id="icon-circle-hero" viewBox="0 0 32 32">
<path fill="#fff" style="fill: var(--color2, #fff)" d="M32 16c0 8.837-7.163 16-16 16s-16-7.163-16-16c0-8.837 7.163-16 16-16s16 7.163 16 16z"></path>
</symbol>
<symbol id="icon-ellipse-gelery" viewBox="0 0 32 32">
<path fill="#d9d9d9" style="fill: var(--color3, #d9d9d9)" d="M32 16c0 8.837-7.163 16-16 16s-16-7.163-16-16c0-8.837 7.163-16 16-16s16 7.163 16 16z"></path>
</symbol>
<symbol id="icon-facebook-footer" viewBox="0 0 16 32">
<path fill="#fff" style="fill: var(--color1, #fff)" d="M14.266 15.97h-4.176v15.39h-6.327v-15.39h-3.009v-5.409h3.009v-3.5c0-2.503 1.182-6.422 6.384-6.422l4.687 0.020v5.25h-3.401c-0.558 0-1.342 0.28-1.342 1.474v3.183h4.729l-0.553 5.403z"></path>
</symbol>
<symbol id="icon-gelery" viewBox="0 0 256 32">
<path fill="#c7133e" style="fill: var(--color5, #c7133e)" d="M144 16c0 8.837-7.163 16-16 16s-16-7.163-16-16c0-8.837 7.163-16 16-16s16 7.163 16 16z"></path>
<path fill="#c7133e" style="fill: var(--color5, #c7133e)" d="M32 16c0 8.837-7.163 16-16 16s-16-7.163-16-16c0-8.837 7.163-16 16-16s16 7.163 16 16z"></path>
<path fill="#c7133e" style="fill: var(--color5, #c7133e)" d="M256 16c0 8.837-7.163 16-16 16s-16-7.163-16-16c0-8.837 7.163-16 16-16s16 7.163 16 16z"></path>
</symbol>
<symbol id="icon-github-footer" viewBox="0 0 32 32">
<path fill="#fff" style="fill: var(--color1, #fff)" d="M16 0.941c-8.271 0-15.059 6.788-15.059 15.059 0 7.058 4.953 13.47 11.529 15.059v-4.982c-0.652 0.143-1.251 0.147-1.915-0.049-0.89-0.263-1.613-0.856-2.15-1.76-0.342-0.577-0.949-1.203-1.581-1.157l-0.155-1.758c1.368-0.117 2.551 0.833 3.254 2.013 0.312 0.525 0.671 0.832 1.132 0.969 0.446 0.131 0.924 0.068 1.481-0.129 0.14-1.116 0.651-1.534 1.037-2.122v-0.001c-3.922-0.585-5.486-2.666-6.106-4.308-0.822-2.181-0.381-4.905 1.073-6.627 0.028-0.034 0.079-0.121 0.060-0.183-0.667-2.014 0.146-3.679 0.176-3.856 0.769 0.228 0.894-0.229 3.342 1.258l0.423 0.254c0.177 0.105 0.121 0.045 0.298 0.032 1.022-0.278 2.099-0.431 3.16-0.445 1.069 0.014 2.14 0.167 3.204 0.456l0.137 0.014c-0.012-0.002 0.037-0.009 0.12-0.058 3.057-1.852 2.947-1.247 3.767-1.513 0.030 0.177 0.831 1.87 0.172 3.858-0.089 0.274 2.65 2.782 1.132 6.809-0.62 1.643-2.184 3.724-6.106 4.309v0.001c0.503 0.766 1.107 1.174 1.104 2.755v6.219c6.577-1.589 11.529-8.001 11.529-15.059 0-8.271-6.787-15.059-15.059-15.059v0z"></path>
</symbol>
<symbol id="icon-home-gelery" viewBox="0 0 35 32">
<path fill="#d31342" style="fill: var(--color6, #d31342)" d="M34.253 15.613c0.599-0.659 0.541-1.669-0.129-2.255l-14.772-12.926c-0.671-0.586-1.745-0.574-2.402 0.028l-14.822 13.587c-0.656 0.602-0.689 1.611-0.071 2.252l0.372 0.387c0.617 0.642 1.613 0.718 2.224 0.17l1.108-0.992v14.523c0 0.891 0.722 1.613 1.612 1.613h5.778c0.89 0 1.612-0.721 1.612-1.613v-10.16h7.37v10.16c-0.013 0.89 0.624 1.612 1.515 1.612h6.123c0.89 0 1.613-0.722 1.613-1.613v-14.318c0 0 0.306 0.268 0.683 0.6s1.168 0.066 1.767-0.594l0.42-0.462z"></path>
</symbol>
<symbol id="icon-icon2-advanteges" viewBox="0 0 32 32">
<path d="M0 0h32v32h-32v-32z"></path>
</symbol>
<symbol id="icon-icon3-advanteges" viewBox="0 0 28 32">
<path d="M0 0h28.16v32h-28.16v-32z"></path>
</symbol>
<symbol id="icon-icon-advanteges" viewBox="0 0 21 32">
<path d="M0 0h21.12v32h-21.12v-32z"></path>
</symbol>
<symbol id="icon-logo-header" viewBox="0 0 127 32">
<path d="M0 0h127.36v32h-127.36v-32z"></path>
</symbol>
<symbol id="icon-products" viewBox="0 0 139 32">
<path fill="#fff" style="fill: var(--color2, #fff)" d="M85.333 16c0 8.837-7.163 16-16 16s-16-7.163-16-16c0-8.837 7.163-16 16-16s16 7.163 16 16z"></path>
<path fill="#fff" style="fill: var(--color2, #fff)" d="M32 16c0 8.837-7.163 16-16 16s-16-7.163-16-16c0-8.837 7.163-16 16-16s16 7.163 16 16z"></path>
<path fill="#fff" style="fill: var(--color2, #fff)" d="M138.667 16c0 8.837-7.163 16-16 16s-16-7.163-16-16c0-8.837 7.163-16 16-16s16 7.163 16 16z"></path>
</symbol>
<symbol id="icon-telegram-footer" viewBox="0 0 40 32">
<path fill="#fff" style="fill: var(--color1, #fff)" d="M16.205 20.751l-0.635 8.339c0.909 0 1.302-0.364 1.774-0.802l4.261-3.801 8.829 6.035c1.619 0.842 2.76 0.399 3.197-1.39l5.797-25.346c0.514-2.234-0.866-3.108-2.443-2.56l-34.065 12.172c-2.325 0.842-2.29 2.052-0.395 2.6l8.709 2.528 20.229-11.814c0.952-0.588 1.818-0.263 1.106 0.326l-16.364 13.713z"></path>
</symbol>
<symbol id="icon-Vector-1" viewBox="0 0 25 32">
<path fill="none" stroke="#fff" style="stroke: var(--color2, #fff)" stroke-linejoin="round" stroke-linecap="round" stroke-miterlimit="4" stroke-width="3.5556" d="M8.889 1.778l6.418 7.111-6.418 7.111"></path>
</symbol>
<symbol id="icon-Vector-1-1" viewBox="0 0 22 32">
<path fill="none" stroke="#d41443" style="stroke: var(--color1, #d41443)" stroke-linejoin="round" stroke-linecap="round" stroke-miterlimit="4" stroke-width="6.4" d="M4.545 3.2l13.7 12.8-13.7 12.8"></path>
</symbol>
<symbol id="icon-footer-icecream" viewBox="0 0 104 32">
<path fill="#907e82" style="fill: var(--color1, #907e82)" d="M8.154 7.504c-0.715 0-1.348-0.16-1.896-0.479-0.542-0.319-0.969-0.757-1.282-1.313-0.306-0.563-0.458-1.209-0.458-1.938 0-0.722 0.153-1.361 0.458-1.917 0.313-0.563 0.74-1 1.282-1.313 0.549-0.32 1.181-0.479 1.896-0.479 0.722 0 1.354 0.16 1.896 0.479 0.549 0.313 0.976 0.75 1.281 1.313 0.306 0.556 0.458 1.195 0.458 1.917 0 0.729-0.153 1.375-0.458 1.938-0.306 0.556-0.733 0.993-1.281 1.313-0.542 0.319-1.174 0.479-1.896 0.479zM8.154 7.015c0.646 0 1.202-0.135 1.667-0.406s0.823-0.649 1.073-1.136c0.257-0.486 0.386-1.052 0.386-1.698s-0.129-1.212-0.386-1.698c-0.25-0.486-0.608-0.861-1.073-1.125-0.465-0.271-1.021-0.406-1.667-0.406-0.639 0-1.191 0.135-1.657 0.406-0.465 0.264-0.827 0.639-1.084 1.125-0.25 0.486-0.375 1.052-0.375 1.698s0.125 1.212 0.375 1.698c0.257 0.486 0.618 0.865 1.084 1.136s1.018 0.406 1.657 0.406zM8.165 6.16c-0.431 0-0.82-0.094-1.167-0.281-0.347-0.194-0.622-0.469-0.823-0.823-0.194-0.361-0.292-0.788-0.292-1.282s0.097-0.917 0.292-1.271c0.201-0.354 0.476-0.629 0.823-0.823s0.736-0.292 1.167-0.292c0.535 0 0.997 0.146 1.386 0.438 0.396 0.292 0.653 0.698 0.771 1.219h-1.167c-0.076-0.229-0.205-0.406-0.386-0.531-0.174-0.132-0.386-0.198-0.636-0.198-0.326 0-0.601 0.122-0.823 0.365-0.215 0.243-0.323 0.608-0.323 1.094s0.108 0.854 0.323 1.104c0.222 0.243 0.497 0.365 0.823 0.365 0.264 0 0.479-0.066 0.646-0.198s0.292-0.309 0.375-0.531h1.167c-0.118 0.5-0.375 0.899-0.771 1.198-0.389 0.299-0.851 0.448-1.386 0.448zM15.264 7.442v-0.969c0.444-0.368 0.875-0.733 1.292-1.094 0.424-0.361 0.799-0.719 1.125-1.073 0.333-0.354 0.597-0.698 0.792-1.031 0.201-0.34 0.302-0.67 0.302-0.99 0-0.299-0.083-0.563-0.25-0.792-0.16-0.229-0.427-0.344-0.802-0.344-0.382 0-0.67 0.125-0.865 0.375s-0.292 0.552-0.292 0.906h-1.292c0.014-0.535 0.132-0.979 0.354-1.334 0.222-0.361 0.517-0.629 0.886-0.802 0.368-0.181 0.781-0.271 1.24-0.271 0.743 0 1.32 0.205 1.73 0.615 0.417 0.403 0.625 0.927 0.625 1.573 0 0.403-0.094 0.795-0.281 1.177-0.181 0.382-0.42 0.75-0.719 1.104s-0.622 0.688-0.969 1c-0.347 0.306-0.684 0.59-1.011 0.854h3.157v1.094h-5.022zM24.332 7.567c-0.674 0-1.25-0.156-1.73-0.469-0.479-0.319-0.851-0.761-1.115-1.323-0.257-0.57-0.386-1.229-0.386-1.98 0-0.743 0.128-1.4 0.386-1.969 0.264-0.57 0.636-1.011 1.115-1.323 0.479-0.32 1.056-0.479 1.73-0.479s1.25 0.16 1.73 0.479c0.479 0.313 0.847 0.754 1.104 1.323 0.264 0.57 0.396 1.226 0.396 1.969 0 0.75-0.132 1.41-0.396 1.98-0.257 0.563-0.625 1.004-1.104 1.323-0.479 0.313-1.056 0.469-1.73 0.469zM24.332 6.369c0.549 0 0.997-0.229 1.344-0.688s0.521-1.087 0.521-1.886-0.174-1.427-0.521-1.886c-0.347-0.458-0.795-0.688-1.344-0.688-0.556 0-1.007 0.229-1.354 0.688-0.34 0.458-0.511 1.087-0.511 1.886s0.17 1.427 0.511 1.886c0.347 0.458 0.799 0.688 1.354 0.688zM29.531 7.442v-5.772l-1.198 0.281v-1.021l1.761-0.781h0.823v7.293h-1.386zM34.821 7.567c-0.507 0-0.934-0.097-1.282-0.292-0.347-0.201-0.618-0.462-0.813-0.781s-0.309-0.663-0.344-1.031h1.24c0.056 0.319 0.188 0.566 0.396 0.74 0.215 0.174 0.486 0.26 0.813 0.26 0.465 0 0.84-0.212 1.125-0.636 0.285-0.431 0.438-1.084 0.458-1.959-0.167 0.285-0.42 0.521-0.761 0.708-0.333 0.188-0.702 0.281-1.104 0.281s-0.781-0.097-1.136-0.292c-0.354-0.194-0.642-0.469-0.865-0.823s-0.333-0.771-0.333-1.25c0-0.438 0.108-0.844 0.323-1.219s0.514-0.677 0.896-0.906c0.382-0.229 0.83-0.344 1.344-0.344 0.549 0 1.011 0.101 1.386 0.302s0.674 0.472 0.896 0.813c0.229 0.34 0.392 0.719 0.49 1.136 0.104 0.417 0.156 0.844 0.156 1.282 0 0.813-0.115 1.521-0.344 2.125-0.222 0.597-0.552 1.063-0.99 1.396-0.431 0.326-0.948 0.49-1.552 0.49zM34.862 3.733c0.257 0 0.49-0.056 0.698-0.167 0.208-0.118 0.372-0.271 0.49-0.458 0.118-0.194 0.177-0.41 0.177-0.646 0-0.375-0.132-0.684-0.396-0.927-0.257-0.243-0.583-0.365-0.979-0.365-0.389 0-0.712 0.122-0.969 0.365-0.257 0.236-0.386 0.538-0.386 0.906 0 0.389 0.129 0.702 0.386 0.938s0.583 0.354 0.979 0.354zM41.27 4.983v-1.115h4.365v1.115h-4.365zM49.393 7.442v-7.293h1.334v7.293h-1.334zM54.641 7.567c-0.528 0-0.993-0.115-1.396-0.344s-0.722-0.549-0.959-0.958c-0.229-0.41-0.344-0.879-0.344-1.407s0.115-0.997 0.344-1.407c0.236-0.41 0.556-0.729 0.959-0.958s0.868-0.344 1.396-0.344c0.66 0 1.216 0.174 1.667 0.521 0.452 0.34 0.74 0.813 0.865 1.417h-1.407c-0.069-0.25-0.208-0.445-0.417-0.583-0.201-0.146-0.441-0.219-0.719-0.219-0.368 0-0.681 0.139-0.938 0.417s-0.386 0.663-0.386 1.156 0.129 0.879 0.386 1.156c0.257 0.278 0.57 0.417 0.938 0.417 0.278 0 0.517-0.069 0.719-0.208 0.208-0.139 0.347-0.337 0.417-0.594h1.407c-0.125 0.583-0.413 1.052-0.865 1.407s-1.007 0.531-1.667 0.531zM60.867 7.567c-0.521 0-0.983-0.111-1.386-0.333s-0.719-0.535-0.948-0.938-0.344-0.868-0.344-1.396c0-0.535 0.111-1.011 0.333-1.427 0.229-0.417 0.542-0.74 0.938-0.969 0.403-0.236 0.875-0.354 1.417-0.354 0.507 0 0.955 0.111 1.344 0.333s0.691 0.528 0.906 0.917c0.222 0.382 0.333 0.809 0.333 1.281 0 0.076-0.004 0.156-0.010 0.24 0 0.083-0.004 0.17-0.010 0.26h-3.928c0.028 0.403 0.167 0.719 0.417 0.948 0.257 0.229 0.566 0.344 0.927 0.344 0.271 0 0.497-0.059 0.677-0.177 0.188-0.125 0.326-0.285 0.417-0.479h1.354c-0.097 0.326-0.26 0.625-0.49 0.896-0.222 0.264-0.5 0.472-0.834 0.625-0.326 0.153-0.698 0.229-1.115 0.229zM60.877 3.233c-0.326 0-0.615 0.094-0.865 0.281-0.25 0.181-0.41 0.458-0.479 0.833h2.573c-0.021-0.34-0.146-0.611-0.375-0.813s-0.514-0.302-0.854-0.302zM67.917 7.567c-0.736 0-1.368-0.156-1.896-0.469-0.528-0.319-0.934-0.761-1.219-1.323-0.285-0.57-0.427-1.226-0.427-1.969s0.142-1.4 0.427-1.969c0.285-0.57 0.691-1.014 1.219-1.334s1.16-0.479 1.896-0.479c0.875 0 1.591 0.219 2.146 0.656 0.563 0.431 0.913 1.038 1.052 1.823h-1.469c-0.090-0.396-0.285-0.705-0.583-0.927-0.292-0.229-0.681-0.344-1.167-0.344-0.674 0-1.202 0.229-1.584 0.688s-0.573 1.087-0.573 1.886 0.191 1.427 0.573 1.886c0.382 0.451 0.91 0.677 1.584 0.677 0.486 0 0.875-0.104 1.167-0.313 0.299-0.215 0.493-0.51 0.583-0.886h1.469c-0.139 0.75-0.49 1.337-1.052 1.761-0.556 0.424-1.271 0.636-2.146 0.636zM72.264 7.442v-5.168h1.188l0.125 0.969c0.188-0.333 0.441-0.597 0.761-0.792 0.326-0.201 0.708-0.302 1.146-0.302v1.407h-0.375c-0.292 0-0.552 0.045-0.781 0.135s-0.41 0.247-0.542 0.469c-0.125 0.222-0.188 0.531-0.188 0.927v2.355h-1.334zM78.814 7.567c-0.521 0-0.983-0.111-1.386-0.333s-0.719-0.535-0.948-0.938c-0.229-0.403-0.344-0.868-0.344-1.396 0-0.535 0.111-1.011 0.333-1.427 0.229-0.417 0.542-0.74 0.938-0.969 0.403-0.236 0.875-0.354 1.417-0.354 0.507 0 0.955 0.111 1.344 0.333s0.691 0.528 0.906 0.917c0.222 0.382 0.333 0.809 0.333 1.281 0 0.076-0.004 0.156-0.010 0.24 0 0.083-0.004 0.17-0.010 0.26h-3.928c0.028 0.403 0.167 0.719 0.417 0.948 0.257 0.229 0.566 0.344 0.927 0.344 0.271 0 0.496-0.059 0.677-0.177 0.188-0.125 0.327-0.285 0.417-0.479h1.354c-0.097 0.326-0.26 0.625-0.49 0.896-0.222 0.264-0.5 0.472-0.834 0.625-0.327 0.153-0.698 0.229-1.115 0.229zM78.825 3.233c-0.327 0-0.615 0.094-0.865 0.281-0.25 0.181-0.41 0.458-0.479 0.833h2.573c-0.021-0.34-0.146-0.611-0.375-0.813s-0.514-0.302-0.854-0.302zM84.312 7.567c-0.444 0-0.809-0.069-1.094-0.208-0.284-0.146-0.496-0.337-0.636-0.573s-0.208-0.497-0.208-0.781c0-0.479 0.188-0.868 0.563-1.167s0.938-0.448 1.688-0.448h1.313v-0.125c0-0.354-0.1-0.615-0.302-0.781s-0.451-0.25-0.75-0.25c-0.271 0-0.507 0.066-0.708 0.198-0.201 0.125-0.326 0.313-0.375 0.563h-1.302c0.035-0.375 0.16-0.702 0.375-0.979 0.222-0.278 0.508-0.49 0.854-0.636 0.348-0.153 0.737-0.229 1.167-0.229 0.737 0 1.316 0.184 1.74 0.552s0.636 0.889 0.636 1.563v3.178h-1.136l-0.125-0.833c-0.153 0.278-0.368 0.507-0.646 0.688-0.271 0.181-0.621 0.271-1.052 0.271zM84.614 6.525c0.382 0 0.677-0.125 0.886-0.375 0.216-0.25 0.351-0.559 0.406-0.927h-1.136c-0.354 0-0.607 0.066-0.761 0.198-0.153 0.125-0.229 0.281-0.229 0.469 0 0.201 0.077 0.358 0.229 0.469s0.354 0.167 0.604 0.167zM88.543 7.442v-5.168h1.177l0.115 0.698c0.167-0.25 0.385-0.448 0.656-0.594 0.278-0.153 0.598-0.229 0.959-0.229 0.799 0 1.365 0.309 1.698 0.927 0.188-0.285 0.438-0.51 0.75-0.677 0.32-0.167 0.667-0.25 1.042-0.25 0.674 0 1.191 0.201 1.552 0.604s0.542 0.993 0.542 1.771v2.917h-1.334v-2.792c0-0.445-0.086-0.785-0.26-1.021-0.167-0.236-0.427-0.354-0.781-0.354-0.361 0-0.653 0.132-0.875 0.396-0.215 0.264-0.323 0.632-0.323 1.104v2.667h-1.334v-2.792c0-0.445-0.086-0.785-0.26-1.021s-0.441-0.354-0.802-0.354c-0.354 0-0.642 0.132-0.865 0.396-0.215 0.264-0.323 0.632-0.323 1.104v2.667h-1.334zM98.874 7.515c-0.243 0-0.445-0.076-0.604-0.229-0.153-0.153-0.229-0.337-0.229-0.552 0-0.222 0.076-0.41 0.229-0.563 0.159-0.153 0.361-0.229 0.604-0.229s0.441 0.076 0.594 0.229c0.159 0.153 0.24 0.34 0.24 0.563 0 0.215-0.080 0.399-0.24 0.552-0.153 0.153-0.351 0.229-0.594 0.229zM3.17 23.070l2.667-7.293h1.5l2.667 7.293h-1.417l-0.583-1.688h-2.844l-0.594 1.688h-1.396zM5.524 20.34h2.115l-1.063-3.032-1.052 3.032zM10.913 23.070v-7.501h1.334v7.501h-1.334zM13.609 23.070v-7.501h1.334v7.501h-1.334zM18.819 23.070v-7.293h2.678c0.583 0 1.063 0.101 1.438 0.302 0.382 0.194 0.667 0.462 0.854 0.802 0.188 0.333 0.281 0.705 0.281 1.115 0 0.445-0.118 0.851-0.354 1.219-0.229 0.368-0.59 0.636-1.084 0.802l1.511 3.053h-1.532l-1.354-2.876h-1.104v2.876h-1.334zM20.152 19.215h1.261c0.445 0 0.771-0.108 0.979-0.323s0.313-0.5 0.313-0.854c0-0.347-0.104-0.625-0.313-0.834-0.201-0.208-0.531-0.313-0.99-0.313h-1.25v2.323zM25.998 17.1c-0.243 0-0.445-0.073-0.604-0.219-0.153-0.146-0.229-0.33-0.229-0.552s0.076-0.403 0.229-0.542c0.16-0.146 0.361-0.219 0.604-0.219s0.441 0.073 0.594 0.219c0.16 0.139 0.24 0.319 0.24 0.542s-0.080 0.406-0.24 0.552c-0.153 0.146-0.351 0.219-0.594 0.219zM25.331 23.070v-5.168h1.334v5.168h-1.334zM30.244 21.528c-0.25 0-0.483-0.028-0.698-0.083l-0.386 0.386c0.118 0.063 0.278 0.115 0.479 0.156s0.528 0.083 0.979 0.125c0.688 0.063 1.188 0.226 1.5 0.49s0.469 0.629 0.469 1.094c0 0.306-0.083 0.594-0.25 0.865-0.167 0.278-0.424 0.5-0.771 0.667-0.347 0.174-0.792 0.26-1.334 0.26-0.736 0-1.33-0.139-1.782-0.417-0.451-0.271-0.677-0.681-0.677-1.229 0-0.465 0.226-0.868 0.677-1.209-0.139-0.063-0.26-0.129-0.365-0.198-0.097-0.069-0.184-0.142-0.26-0.219v-0.24l0.906-0.959c-0.403-0.354-0.604-0.809-0.604-1.365 0-0.347 0.083-0.663 0.25-0.948 0.174-0.285 0.417-0.511 0.729-0.677s0.691-0.25 1.136-0.25c0.292 0 0.563 0.042 0.813 0.125h1.959v0.813l-0.886 0.063c0.139 0.264 0.208 0.556 0.208 0.875 0 0.347-0.083 0.663-0.25 0.948s-0.41 0.511-0.729 0.677c-0.313 0.167-0.684 0.25-1.115 0.25zM30.244 20.507c0.271 0 0.493-0.073 0.667-0.219 0.181-0.146 0.271-0.354 0.271-0.625s-0.090-0.479-0.271-0.625c-0.174-0.146-0.396-0.219-0.667-0.219-0.285 0-0.514 0.073-0.688 0.219s-0.26 0.354-0.26 0.625c0 0.271 0.087 0.479 0.26 0.625s0.403 0.219 0.688 0.219zM28.994 23.705c0 0.257 0.118 0.448 0.354 0.573 0.243 0.132 0.538 0.198 0.886 0.198 0.333 0 0.604-0.069 0.813-0.208 0.208-0.132 0.313-0.313 0.313-0.542 0-0.188-0.069-0.344-0.208-0.469-0.132-0.125-0.399-0.201-0.802-0.229-0.285-0.021-0.549-0.052-0.792-0.094-0.201 0.111-0.347 0.233-0.438 0.365-0.083 0.132-0.125 0.267-0.125 0.406zM33.988 23.070v-7.501h1.334v3.126c0.174-0.285 0.406-0.507 0.698-0.667 0.299-0.167 0.639-0.25 1.021-0.25 0.639 0 1.132 0.201 1.479 0.604 0.354 0.403 0.531 0.993 0.531 1.771v2.917h-1.323v-2.792c0-0.445-0.090-0.785-0.271-1.021-0.174-0.236-0.451-0.354-0.834-0.354-0.375 0-0.688 0.132-0.938 0.396-0.243 0.264-0.365 0.632-0.365 1.104v2.667h-1.334zM42.629 23.070c-0.542 0-0.976-0.132-1.302-0.396s-0.49-0.733-0.49-1.407v-2.25h-0.886v-1.115h0.886l0.156-1.386h1.177v1.386h1.396v1.115h-1.396v2.261c0 0.25 0.052 0.424 0.156 0.521 0.111 0.090 0.299 0.135 0.563 0.135h0.646v1.136h-0.906zM46.848 23.195c-0.458 0-0.861-0.073-1.209-0.219-0.347-0.153-0.625-0.361-0.834-0.625s-0.333-0.57-0.375-0.917h1.344c0.042 0.201 0.153 0.375 0.333 0.521 0.188 0.139 0.427 0.208 0.719 0.208s0.504-0.059 0.636-0.177c0.139-0.118 0.208-0.254 0.208-0.406 0-0.222-0.097-0.372-0.292-0.448-0.195-0.083-0.465-0.163-0.813-0.24-0.222-0.049-0.448-0.108-0.677-0.177s-0.441-0.156-0.636-0.26c-0.188-0.111-0.34-0.25-0.458-0.417-0.118-0.174-0.177-0.386-0.177-0.636 0-0.458 0.181-0.844 0.542-1.156 0.368-0.313 0.882-0.469 1.542-0.469 0.611 0 1.097 0.142 1.459 0.427 0.368 0.285 0.587 0.677 0.656 1.177h-1.261c-0.076-0.382-0.365-0.573-0.865-0.573-0.25 0-0.445 0.049-0.583 0.146-0.132 0.097-0.198 0.219-0.198 0.365 0 0.153 0.101 0.274 0.302 0.365s0.469 0.174 0.802 0.25c0.361 0.083 0.691 0.177 0.99 0.281 0.306 0.097 0.549 0.247 0.729 0.448 0.181 0.194 0.271 0.476 0.271 0.844 0.007 0.319-0.076 0.608-0.25 0.865s-0.424 0.458-0.75 0.604c-0.326 0.146-0.712 0.219-1.156 0.219zM52.7 23.070v-7.293h2.678c0.583 0 1.063 0.101 1.438 0.302 0.382 0.194 0.667 0.462 0.854 0.802 0.188 0.333 0.281 0.705 0.281 1.115 0 0.445-0.118 0.851-0.354 1.219-0.229 0.368-0.59 0.636-1.084 0.802l1.511 3.053h-1.532l-1.354-2.876h-1.104v2.876h-1.334zM54.033 19.215h1.261c0.444 0 0.771-0.108 0.979-0.323s0.313-0.5 0.313-0.854c0-0.347-0.104-0.625-0.313-0.834-0.201-0.208-0.531-0.313-0.99-0.313h-1.25v2.323zM61.355 23.195c-0.521 0-0.983-0.111-1.386-0.333s-0.719-0.535-0.948-0.938c-0.229-0.403-0.344-0.868-0.344-1.396 0-0.535 0.111-1.011 0.333-1.427 0.229-0.417 0.542-0.74 0.938-0.969 0.403-0.236 0.875-0.354 1.417-0.354 0.507 0 0.955 0.111 1.344 0.333s0.691 0.528 0.906 0.917c0.222 0.382 0.333 0.809 0.333 1.282 0 0.076-0.004 0.156-0.010 0.24 0 0.083-0.004 0.17-0.010 0.26h-3.928c0.028 0.403 0.167 0.719 0.417 0.948 0.257 0.229 0.566 0.344 0.927 0.344 0.271 0 0.497-0.059 0.677-0.177 0.188-0.125 0.326-0.285 0.417-0.479h1.354c-0.097 0.326-0.26 0.625-0.49 0.896-0.222 0.264-0.5 0.472-0.834 0.625-0.326 0.153-0.698 0.229-1.115 0.229zM61.366 18.861c-0.326 0-0.615 0.094-0.865 0.281-0.25 0.181-0.41 0.458-0.479 0.834h2.573c-0.021-0.34-0.146-0.611-0.375-0.813s-0.514-0.302-0.854-0.302zM67.207 23.195c-0.458 0-0.861-0.073-1.209-0.219-0.347-0.153-0.625-0.361-0.834-0.625s-0.333-0.57-0.375-0.917h1.344c0.042 0.201 0.153 0.375 0.333 0.521 0.188 0.139 0.427 0.208 0.719 0.208s0.504-0.059 0.636-0.177c0.139-0.118 0.208-0.254 0.208-0.406 0-0.222-0.097-0.372-0.292-0.448-0.194-0.083-0.465-0.163-0.813-0.24-0.222-0.049-0.448-0.108-0.677-0.177s-0.441-0.156-0.636-0.26c-0.188-0.111-0.34-0.25-0.458-0.417-0.118-0.174-0.177-0.386-0.177-0.636 0-0.458 0.181-0.844 0.542-1.156 0.368-0.313 0.882-0.469 1.542-0.469 0.611 0 1.097 0.142 1.459 0.427 0.368 0.285 0.587 0.677 0.656 1.177h-1.261c-0.076-0.382-0.365-0.573-0.865-0.573-0.25 0-0.445 0.049-0.583 0.146-0.132 0.097-0.198 0.219-0.198 0.365 0 0.153 0.101 0.274 0.302 0.365s0.469 0.174 0.802 0.25c0.361 0.083 0.691 0.177 0.99 0.281 0.306 0.097 0.549 0.247 0.729 0.448 0.181 0.194 0.271 0.476 0.271 0.844 0.007 0.319-0.076 0.608-0.25 0.865s-0.424 0.458-0.75 0.604c-0.326 0.146-0.712 0.219-1.156 0.219zM73.056 23.195c-0.521 0-0.983-0.111-1.386-0.333s-0.719-0.535-0.948-0.938-0.344-0.868-0.344-1.396c0-0.535 0.111-1.011 0.333-1.427 0.229-0.417 0.542-0.74 0.938-0.969 0.403-0.236 0.875-0.354 1.417-0.354 0.507 0 0.955 0.111 1.344 0.333s0.691 0.528 0.907 0.917c0.222 0.382 0.333 0.809 0.333 1.282 0 0.076-0.004 0.156-0.010 0.24 0 0.083-0.004 0.17-0.010 0.26h-3.928c0.028 0.403 0.167 0.719 0.417 0.948 0.257 0.229 0.566 0.344 0.927 0.344 0.271 0 0.497-0.059 0.677-0.177 0.188-0.125 0.326-0.285 0.417-0.479h1.355c-0.097 0.326-0.26 0.625-0.49 0.896-0.222 0.264-0.5 0.472-0.834 0.625-0.326 0.153-0.698 0.229-1.115 0.229zM73.066 18.861c-0.326 0-0.615 0.094-0.865 0.281-0.25 0.181-0.41 0.458-0.479 0.834h2.573c-0.021-0.34-0.146-0.611-0.375-0.813s-0.514-0.302-0.854-0.302zM76.772 23.070v-5.168h1.188l0.125 0.969c0.188-0.333 0.441-0.597 0.761-0.792 0.327-0.201 0.708-0.302 1.146-0.302v1.407h-0.375c-0.292 0-0.552 0.045-0.781 0.135s-0.41 0.247-0.542 0.469c-0.125 0.222-0.188 0.531-0.188 0.927v2.355h-1.334zM82.299 23.070l-1.896-5.168h1.396l1.313 3.907 1.313-3.907h1.396l-1.907 5.168h-1.615zM88.918 23.195c-0.521 0-0.982-0.111-1.386-0.333s-0.719-0.535-0.948-0.938-0.344-0.868-0.344-1.396c0-0.535 0.112-1.011 0.333-1.427 0.229-0.417 0.542-0.74 0.938-0.969 0.403-0.236 0.875-0.354 1.417-0.354 0.508 0 0.956 0.111 1.344 0.333s0.691 0.528 0.906 0.917c0.222 0.382 0.333 0.809 0.333 1.282 0 0.076-0.003 0.156-0.010 0.24 0 0.083-0.003 0.17-0.010 0.26h-3.928c0.028 0.403 0.167 0.719 0.417 0.948 0.257 0.229 0.566 0.344 0.927 0.344 0.271 0 0.497-0.059 0.677-0.177 0.188-0.125 0.327-0.285 0.417-0.479h1.354c-0.097 0.326-0.26 0.625-0.49 0.896-0.222 0.264-0.5 0.472-0.834 0.625-0.326 0.153-0.698 0.229-1.115 0.229zM88.928 18.861c-0.326 0-0.615 0.094-0.865 0.281-0.25 0.181-0.409 0.458-0.479 0.834h2.573c-0.021-0.34-0.146-0.611-0.375-0.813s-0.513-0.302-0.854-0.302zM95.009 23.195c-0.486 0-0.92-0.118-1.302-0.354s-0.684-0.559-0.906-0.969c-0.222-0.41-0.333-0.875-0.333-1.396s0.112-0.983 0.333-1.386c0.222-0.41 0.525-0.729 0.906-0.959 0.382-0.236 0.816-0.354 1.302-0.354 0.389 0 0.729 0.073 1.021 0.219s0.528 0.351 0.708 0.615v-3.042h1.334v7.501h-1.188l-0.146-0.74c-0.167 0.229-0.388 0.431-0.667 0.604-0.271 0.174-0.625 0.26-1.063 0.26zM95.29 22.028c0.431 0 0.781-0.142 1.052-0.427 0.278-0.292 0.417-0.663 0.417-1.115s-0.138-0.82-0.417-1.104c-0.271-0.292-0.621-0.438-1.052-0.438-0.423 0-0.774 0.142-1.052 0.427s-0.417 0.653-0.417 1.104 0.139 0.823 0.417 1.115c0.278 0.292 0.629 0.438 1.052 0.438zM100.003 23.143c-0.243 0-0.444-0.076-0.604-0.229-0.153-0.153-0.229-0.337-0.229-0.552 0-0.222 0.077-0.41 0.229-0.563 0.16-0.153 0.362-0.229 0.604-0.229s0.441 0.076 0.594 0.229c0.16 0.153 0.24 0.34 0.24 0.563 0 0.215-0.080 0.399-0.24 0.552-0.153 0.153-0.35 0.229-0.594 0.229z"></path>
</symbol>
</defs>
</svg>
